<svg width="640" height="384" viewBox="0 0 640 384" xmlns="http://www.w3.org/2000/svg" xmlns:xlink="http://www.w3.org/1999/xlink"><title>barbajs-logo</title><defs><path d="M.468 73.736c19.022-.402 34.373-16.11 34.373-35.362C34.84 19.125 19.49 3.42.468 3.018V0H37.83v75.249H.47v-1.513z" id="a"/><path d="M38.13 47.7a35.33 35.33 0 0 0-1.28-.024c-19.365 0-35.12 15.864-35.12 35.364 0 19.503 15.755 35.37 35.12 35.37.428 0 .855-.008 1.28-.023v1.71H.336V0h37.792v47.7z" id="c"/><path d="M35.12 37.621V2.257H24.583A37.058 37.058 0 0 1 37.361 0c20.634 0 37.361 16.848 37.361 37.621H35.12zm-32.878 0H0c0-4.518.791-8.85 2.242-12.864V37.62z" id="e"/><path d="M.468 72.99l.332.001c19.365 0 35.12-15.867 35.12-35.37 0-19.5-15.755-35.364-35.12-35.364l-.332.002V0H37.83v75.249H.47v-2.26z" id="g"/><path d="M37.793 47.41a35.412 35.412 0 0 0-.432-.003c-19.365 0-35.119 15.864-35.119 35.364 0 19.503 15.754 35.37 35.12 35.37.143 0 .287-.001.43-.003v1.959H0V0h37.793v47.41z" id="i"/></defs><g fill="none" fill-rule="evenodd"><path d="M537.228 177.419c-20.637 0-37.361 16.848-37.361 37.621 0 20.781 16.724 37.628 37.36 37.628 20.635 0 37.362-16.847 37.362-37.628 0-20.773-16.727-37.621-37.361-37.621m0 4.515c18.129 0 32.878 14.851 32.878 33.106 0 18.259-14.75 33.113-32.878 33.113-18.13 0-32.878-14.854-32.878-33.113 0-18.255 14.749-33.106 32.878-33.106" fill="#2E5BDC" fill-rule="nonzero"/><path d="M534.25 195.795c0 .602-.113 1.167-.337 1.693a4.09 4.09 0 0 1-.92 1.355 4.519 4.519 0 0 1-1.367.903 4.082 4.082 0 0 1-1.636.338 4.04 4.04 0 0 1-1.659-.338 4.575 4.575 0 0 1-1.343-.903 4.072 4.072 0 0 1-.921-1.355 4.278 4.278 0 0 1-.336-1.693c0-.602.112-1.166.336-1.693.224-.527.53-.977.92-1.354a4.575 4.575 0 0 1 1.344-.903 4.04 4.04 0 0 1 1.659-.339c.568 0 1.115.113 1.636.339.523.225.98.526 1.368.903.388.377.695.827.919 1.354.224.527.336 1.091.336 1.693zm-9.624 8.142h8.28v26.819c0 1.565-.42 2.724-1.256 3.476-.838.753-1.928 1.13-3.274 1.13h-10.534v-5.419h8.068c.898 0 1.345-.496 1.345-1.49v-19.098h-2.629v-5.418zm18.92 6.321c0 .722.373 1.242 1.12 1.558.748.316 2.108.579 4.079.79 2.273.242 4.126.925 5.56 2.054 1.435 1.129 2.153 2.703 2.153 4.718v.271c0 2.229-.807 4.003-2.421 5.328-1.616 1.325-3.886 1.986-6.815 1.986-1.734 0-3.213-.226-4.439-.677-1.225-.452-2.241-1.016-3.048-1.693-.807-.677-1.429-1.428-1.86-2.258-.434-.827-.726-1.633-.875-2.415l5.2-1.716c.24.963.74 1.806 1.501 2.529.764.722 1.935 1.083 3.52 1.083 1.404 0 2.37-.218 2.893-.655.521-.434.784-.909.784-1.422 0-.3-.067-.578-.202-.835-.134-.254-.38-.497-.74-.722-.358-.226-.844-.413-1.458-.565-.613-.149-1.38-.27-2.307-.36-2.51-.212-4.506-.865-5.986-1.965-1.479-1.099-2.219-2.715-2.219-4.853v-.271c0-1.113.238-2.092.718-2.935a6.992 6.992 0 0 1 1.883-2.145 8.353 8.353 0 0 1 2.69-1.332 10.993 10.993 0 0 1 3.138-.451c1.403 0 2.623.175 3.654.52 1.031.347 1.905.797 2.623 1.354.717.558 1.3 1.174 1.748 1.85.448.678.79 1.333 1.03 1.965l-5.11 2.077c-.269-.813-.734-1.451-1.39-1.92-.659-.464-1.509-.699-2.555-.699-.958 0-1.674.175-2.154.52-.476.345-.715.774-.715 1.286" fill="#2E5BDC" fill-rule="nonzero"/><g transform="translate(452.087 177.15)"><mask id="b" fill="#fff"><use xlink:href="#a"/></mask><path d="M.468 75.249H37.83V0H.47v75.249zm4.484-4.515h28.394V4.514H4.952v66.22z" fill="#2E5BDC" fill-rule="nonzero" mask="url(#b)"/></g><path d="M452.556 177.15c-20.637 0-37.361 16.847-37.361 37.62 0 20.781 16.724 37.628 37.36 37.628 20.634 0 37.362-16.847 37.362-37.627 0-20.774-16.728-37.622-37.361-37.622m0 4.515c18.129 0 32.877 14.851 32.877 33.107 0 18.258-14.748 33.112-32.877 33.112-18.13 0-32.878-14.854-32.878-33.112 0-18.256 14.749-33.107 32.878-33.107" fill="#2E5BDC" fill-rule="nonzero"/><g transform="translate(330.011 132)"><mask id="d" fill="#fff"><use xlink:href="#c"/></mask><path d="M.337 120.097h37.792V0H.337v120.097zm4.499-4.515H33.63V4.515H4.836v111.067z" fill="#2E5BDC" fill-rule="nonzero" mask="url(#d)"/></g><path d="M368.356 177.419c-20.637 0-37.362 16.848-37.362 37.621 0 20.781 16.725 37.628 37.362 37.628 20.633 0 37.36-16.847 37.36-37.628 0-20.773-16.727-37.621-37.36-37.621m0 4.515c18.129 0 32.877 14.851 32.877 33.106 0 18.259-14.748 33.113-32.877 33.113-18.13 0-32.878-14.854-32.878-33.113 0-18.255 14.748-33.106 32.878-33.106" fill="#2E5BDC" fill-rule="nonzero"/><g transform="translate(243.333 177.15)"><mask id="f" fill="#fff"><use xlink:href="#e"/></mask><path d="M37.361 0C16.724 0 0 16.848 0 37.621h74.722C74.722 16.848 57.995 0 37.362 0m0 4.515c16.608 0 30.38 12.464 32.572 28.591H4.788C6.981 16.98 20.753 4.515 37.361 4.515" fill="#2E5BDC" fill-rule="nonzero" mask="url(#f)"/></g><path d="M243.333 252.398h37.362v-75.249h-37.362v75.249zm4.484-4.515h28.394v-66.219h-28.394v66.22z" fill="#2E5BDC" fill-rule="nonzero"/><g transform="translate(186.076 177.15)"><mask id="h" fill="#fff"><use xlink:href="#g"/></mask><path d="M.468 75.249H37.83V0H.47v75.249zm4.484-4.515h28.394V4.514H4.952v66.22z" fill="#2E5BDC" fill-rule="nonzero" mask="url(#h)"/></g><path d="M186.876 177.15c-20.637 0-37.361 16.847-37.361 37.62 0 20.781 16.724 37.628 37.361 37.628 20.634 0 37.361-16.847 37.361-37.627 0-20.774-16.727-37.622-37.36-37.622m0 4.515c18.128 0 32.877 14.851 32.877 33.107 0 18.258-14.749 33.112-32.878 33.112-18.129 0-32.878-14.854-32.878-33.112 0-18.256 14.749-33.107 32.878-33.107" fill="#2E5BDC" fill-rule="nonzero"/><g transform="translate(64 132)"><mask id="j" fill="#fff"><use xlink:href="#i"/></mask><path d="M0 120.097h37.793V0H0v120.097zm4.5-4.515h28.793V4.515H4.5v111.067z" fill="#2E5BDC" fill-rule="nonzero" mask="url(#j)"/></g><path d="M64 214.77c0 20.781 16.725 37.628 37.361 37.628 20.634 0 37.362-16.847 37.362-37.627 0-20.774-16.728-37.622-37.362-37.622-20.636 0-37.36 16.848-37.36 37.622zm37.361-33.106c18.13 0 32.878 14.851 32.878 33.107 0 18.258-14.748 33.112-32.878 33.112-18.129 0-32.877-14.854-32.877-33.112 0-18.256 14.748-33.107 32.877-33.107z" fill="#2E5BDC" fill-rule="nonzero"/></g></svg>